<svg xmlns="http://www.w3.org/2000/svg" viewBox="0 0 280 280" fill="none" shape-rendering="auto" width="128" height="128"><metadata xmlns:rdf="http://www.w3.org/1999/02/22-rdf-syntax-ns#" xmlns:xsi="http://www.w3.org/2001/XMLSchema-instance" xmlns:dc="http://purl.org/dc/elements/1.1/" xmlns:dcterms="http://purl.org/dc/terms/"><rdf:RDF><rdf:Description><dc:title>Avataaars</dc:title><dc:creator>Pablo Stanley</dc:creator><dc:source xsi:type="dcterms:URI">https://avataaars.com/</dc:source><dcterms:license xsi:type="dcterms:URI">https://avataaars.com/</dcterms:license><dc:rights>Remix of „Avataaars” (https://avataaars.com/) by „Pablo Stanley”, licensed under „Free for personal and commercial use” (https://avataaars.com/)</dc:rights></rdf:Description></rdf:RDF></metadata><mask id="viewboxMask"><rect width="280" height="280" rx="0" ry="0" x="0" y="0" fill="#fff" /></mask><g mask="url(#viewboxMask)"><g transform="translate(8)"><path d="M132 36a56 56 0 0 0-56 56v6.17A12 12 0 0 0 66 110v14a12 12 0 0 0 10.3 11.88 56.04 56.04 0 0 0 31.7 44.73v18.4h-4a72 72 0 0 0-72 72v9h200v-9a72 72 0 0 0-72-72h-4v-18.39a56.04 56.04 0 0 0 31.7-44.73A12 12 0 0 0 198 124v-14a12 12 0 0 0-10-11.83V92a56 56 0 0 0-56-56Z" fill="#fd9841"/><path d="M108 180.61v8a55.79 55.79 0 0 0 24 5.39c8.59 0 16.73-1.93 24-5.39v-8a55.79 55.79 0 0 1-24 5.39 55.79 55.79 0 0 1-24-5.39Z" fill="#000" fill-opacity=".1"/><g transform="translate(0 170)"><path d="M132.5 54C151 54 166 44.37 166 32.5c0-1.1-.13-2.18-.38-3.23A72 72 0 0 1 232 101.05V110H32v-8.95A72 72 0 0 1 99.4 29.2a14.1 14.1 0 0 0-.4 3.3C99 44.37 114 54 132.5 54Z" fill="#ffffff"/><g transform="translate(77 58)"><g fill-rule="evenodd" clip-rule="evenodd" fill="#fff"><path d="M72.34 18.04a8.66 8.66 0 0 1-1 2.99c-.71 1.21-2.02 1.7-2.78 2.82-1.19 1.75.4 4.27-.78 5.83-1.27 1.68-4.14.67-5.26 2.9-1.18 2.35.53 5.49-.95 7.83-1.47-.37-1.92-5.9-4.19-2.37-1.45 2.25-.47 3.47-2.64.23-.76-1.12-1.62-2.13-3.1-1.39-1.04.52-1.26 2.84-2.21 3.09-2.33.6-2.42-5.62-3.21-6.8a2.8 2.8 0 0 0-1.62-1.28c-.67-.2-1.87.22-2.43-.1-1.04-.59-1.18-2.55-1.22-3.6-.07-1.93.58-3.91.04-5.83-.45-1.61-1.89-2.6-2.36-4.18C36.1 9.64 47.68 4.89 54.3 4.63c7.74-.3 19.04 4.22 18.04 13.4Zm1.83-5.32c-1.45-3.44-4.65-6.17-7.91-8-1.59-.9-3.3-1.56-5.09-1.95-1.64-.36-3.55-.12-5.12-.58C54.73 1.81 53.9.95 52.35 1c-2.11.07-4.31 1.17-6.16 2.09-3.66 1.8-6.77 4.15-8.73 7.74-2.1 3.86-1.9 7.36.35 10.95 2.15 3.44-.97 8.27 2.17 11.53 1.32 1.37 2.62.37 3.87 1.03.96.5.92 3.46 1.19 4.33 1.2 3.9 5.51 5.4 7.5 1.2.94 2.34 4.66 4.75 6.39 1.68 1.08 1.4 2.95 2 4.38.8 1.35-1.14 1.5-3.76 1.56-5.35.06-1.24-.5-2.77.46-3.66 1.04-.98 3.2-.57 4.37-1.84 1.34-1.45.78-3.14.89-4.87.1-1.75.41-1.3 1.7-2.56 2.9-2.81 3.38-7.8 1.88-11.35Z"/><path d="M50.42 29.12c2.02-1.82 1.6-7.4 1.42-9.96-.31-4.86-3.35-3.4-5.2-.38-1.4 2.3-4.77 6-3.26 8.88 1.2 2.3 5.18 3.13 7.04 1.46ZM63.8 20.27c-1.04-1.92-1.43-2.2-2.66-3.78-.8-1.01-1.9-2.8-3.4-2.44-2.59.62-1.53 6.6-1.5 8.4.02 1.36-.28 2.76.85 3.73 1.15.98 3.05.9 4.44.69 4.26-.64 4.06-3.26 2.26-6.6ZM55.24 32.83c-.28-.04.08-.36.12-.59.19.62.33.65-.12.59Zm1.04-4.31c-2.61-2.77-7.57 6.4-4.08 7.43.8.23 1.4-.37 2.16-.47 1.1-.16 2.02.48 2.97-.53 1.5-1.58.2-5.1-1.05-6.43Z"/></g></g></g><g transform="translate(78 134)"><path fill-rule="evenodd" clip-rule="evenodd" d="M40.06 27.72C40.7 20.7 46.7 16 54 16c7.34 0 13.36 4.75 13.95 11.85.03.38-.87.67-1.32.45-5.54-2.77-9.75-4.16-12.63-4.16-2.84 0-7 1.36-12.45 4.07-.5.25-1.53-.07-1.5-.49Z" fill="#000" fill-opacity=".7"/></g><g transform="translate(104 122)"><path fill-rule="evenodd" clip-rule="evenodd" d="M16 8c0 4.42 5.37 8 12 8s12-3.58 12-8" fill="#000" fill-opacity=".16"/></g><g transform="translate(76 90)"><path d="M25 27s-6 7.27-6 11.27a6 6 0 1 0 12 0c0-4-6-11.27-6-11.27Z" fill="#92D9FF"/><path d="M36 22a6 6 0 1 1-12 0 6 6 0 0 1 12 0ZM88 22a6 6 0 1 1-12 0 6 6 0 0 1 12 0Z" fill="#000" fill-opacity=".6"/></g><g transform="translate(76 82)"><path d="m22.77 1.58.9-.4C28.93-.91 36.88-.03 41.73 2.3c.57.27.18 1.15-.4 1.1-14.92-1.14-24.96 8.15-28.37 14.45-.1.18-.41.2-.49.03-2.3-5.32 4.45-13.98 10.3-16.3ZM89.23 1.58l-.9-.4C83.07-.91 75.12-.03 70.27 2.3c-.57.27-.18 1.15.4 1.1 14.92-1.14 24.96 8.15 28.37 14.45.1.18.41.2.49.03 2.3-5.32-4.45-13.98-10.3-16.3Z" fill-rule="evenodd" clip-rule="evenodd" fill="#000" fill-opacity=".6"/></g><g transform="translate(-1)"><path d="M67 105.02c11.38-.72 24.68-14.4 31.98-33.94C108.78 72.94 120.04 74 132 74c12.55 0 24.31-1.16 34.45-3.2 7.38 19.96 21.01 33.87 32.55 34.24V88a66 66 0 0 0-38-59.78A183.64 183.64 0 0 0 132 26c-9.2 0-17.99.63-26.02 1.76A66.01 66.01 0 0 0 67 88v17.02Z" fill="#000" fill-opacity=".16"/><path d="M73 192a48 48 0 0 0 13.6-1.95 72.08 72.08 0 0 0 13.68 9.1c1.56-.1 3.13-.15 4.72-.15h4v-18.39a56.03 56.03 0 0 1-31.8-45.74A12 12 0 0 1 67 123v-13a12 12 0 0 1 10-11.83v-.75c8.46-5.38 16.75-16.36 21.98-30.34C108.78 68.94 120.04 70 132 70c12.55 0 24.31-1.16 34.45-3.2C171.76 81.17 180.32 92.4 189 97.7v.46c.44.07.87.17 1.29.29a24.4 24.4 0 0 0 3.23 1.47A11.99 11.99 0 0 1 199 110v13a12 12 0 0 1-10.2 11.87A56.03 56.03 0 0 1 157 180.6V199h4c1.59 0 3.16.05 4.72.15a72.08 72.08 0 0 0 13.69-9.1 48 48 0 0 0 45.19-82.18 44.01 44.01 0 0 0-28.37-69.28A44.02 44.02 0 0 0 133 15.9a44.02 44.02 0 0 0-63.23 22.7 44.01 44.01 0 0 0-28.37 69.27A48 48 0 0 0 73 192Z" fill="#ecdcbf"/></g><g transform="translate(49 72)"></g><g transform="translate(62 42)"></g></g></g></svg>